<svg xmlns="http://www.w3.org/2000/svg" width="86" height="36" viewBox="0 0 86 36" fill="none">
    <g clip-path="url(#clip0_226_915)">
        <path d="M30.2527 10.099L18.4198 14.8788V22.5452L23.6659 20.4268V17.8895L30.2527 15.228V17.7653V23.5539L18.4198 28.3337V36.0001L36.8357 28.5587V20.8924V15.1038V7.4375L30.2527 10.099Z" fill="#BF8400"/>
        <path d="M0 7.44132L6.59069 10.1067L14.8446 6.77013L24.9094 2.70417V2.6227L18.4197 0L0 7.44132Z" fill="#D0A02B"/>
        <path d="M11.8407 12.198L18.4547 14.8672L26.7358 11.5229L36.8356 7.44142V7.35995L30.3265 4.72949L11.8407 12.198Z" fill="#D0A02B"/>
        <path d="M6.58681 10.099L0 7.4375V20.8924V28.5587L18.4197 36.0001V28.3337L6.58681 23.5539V10.099Z" fill="#FFD966"/>
        <path d="M11.8407 12.1978V19.8641L18.4197 22.5217V14.8554L11.8407 12.1978Z" fill="#FFD966"/>
        <path d="M49.811 17.1327C50.39 17.1327 51.0623 17.2026 51.7074 17.2685L52.0105 17.2996C52.2009 17.3228 52.3991 17.3345 52.5934 17.3422C52.6905 17.3461 52.7838 17.35 52.8771 17.3578L53.1141 17.3733L53.1918 15.6468L52.1737 15.577L51.9211 15.5498C51.2527 15.48 50.561 15.4062 49.8071 15.4062C47.2385 15.4062 45.653 16.2908 44.9612 18.1182C44.5454 19.2705 44.3162 20.7603 44.3162 22.316C44.3162 23.8718 44.5571 25.4703 44.9612 26.607C45.7579 28.803 47.9962 29.2646 49.7333 29.2646C50.561 29.2646 51.618 29.1172 52.9626 28.8146L53.1452 28.7719L53.1646 22.0095H51.4315V22.2423C51.4315 23.1541 51.4276 24.0348 51.4237 24.9155C51.4198 25.7302 51.4159 26.5411 51.4159 27.3752C50.8602 27.48 50.2812 27.5382 49.7372 27.5382C48.5597 27.5382 47.0597 27.2705 46.5934 26.0018L46.5234 25.8194C46.2203 24.8728 46.0493 23.6158 46.0493 22.316C46.0493 21.0163 46.2475 19.7205 46.5895 18.7312C47.0325 17.6565 48.0856 17.1327 49.811 17.1327Z" fill="#424142"/>
        <path d="M59.1531 15.6469C58.2399 15.6469 57.0585 15.7129 55.7334 15.8332L55.5197 15.8526V28.7721L55.7217 28.7992C57.214 29.0126 58.3914 29.1523 59.2852 29.1523C63.1479 29.1523 64.7218 27.162 64.7218 22.2774C64.7218 16.7022 62.7671 15.6431 59.157 15.6431L59.1531 15.6469ZM62.9886 22.2813C62.9886 26.5645 61.5702 27.4258 59.2813 27.4258C58.7567 27.4258 58.0728 27.3715 57.2489 27.2706V17.4355C57.9173 17.3928 58.5158 17.3773 59.1531 17.3773C61.7528 17.3773 62.9886 18.1106 62.9886 22.2813Z" fill="#424142"/>
        <path d="M70.9237 21.4394L70.8421 21.4006C69.3344 20.6945 68.0869 20.0233 68.1336 18.9331C68.1919 17.7187 69.1167 17.1523 71.0403 17.1523C71.9535 17.1523 73.0183 17.2919 73.9393 17.4277L74.1686 17.4626L74.4484 15.74L74.2152 15.7051C73.3331 15.5732 72.1711 15.4258 71.0403 15.4258C68.1608 15.4258 66.5559 16.6052 66.4043 18.8555C66.4432 20.8768 68.2968 22.064 70.1038 22.9563C71.153 23.4723 72.4548 24.1125 72.7929 24.8884C72.9484 25.2997 73.0183 25.6101 73.0183 25.901C73.0183 26.9563 71.903 27.5616 69.9639 27.5616C69.2489 27.5616 68.3939 27.4685 67.2748 27.2667L67.0494 27.2279L66.7191 28.9078L66.9483 28.9505C68.0753 29.1717 69.1167 29.2881 69.9678 29.2881C74.289 29.2881 74.7553 26.9214 74.7553 25.901C74.7553 25.3967 74.6349 24.8574 74.3862 24.2522C73.8033 22.8593 72.3421 22.1377 70.9315 21.4432L70.9237 21.4394Z" fill="#424142"/>
        <path d="M76.4381 15.7402V17.4667H80.2853V29.1137H82.0146V17.4667H85.9355V15.7402H76.4381Z" fill="#424142"/>
    </g>
    <defs>
        <clipPath id="clip0_226_915">
            <rect width="85.9355" height="36" fill="white"/>
        </clipPath>
    </defs>
</svg>